<svg width="263" height="30" viewBox="0 0 263 30" fill="none" xmlns="http://www.w3.org/2000/svg">
<g clip-path="url(#clip0_2978_12493)">
<path d="M70.5501 1.73828C72.7144 1.73828 74.4689 3.4902 74.4689 5.65129L74.4689 25.6514C74.4689 27.8125 72.7144 29.5644 70.5501 29.5644C68.3857 29.5644 66.6312 27.8125 66.6312 25.6514L66.6312 5.65129C66.6312 3.4902 68.3858 1.73828 70.5501 1.73828Z" fill="#71BF44"/>
<path d="M66.6312 25.6513C66.6312 23.4902 68.3858 21.7383 70.5501 21.7383H90.5799C92.7442 21.7383 94.4988 23.4902 94.4988 25.6513C94.4988 27.8124 92.7442 29.5644 90.5799 29.5644H70.5501C68.3858 29.5644 66.6312 27.8124 66.6312 25.6513Z" fill="#71BF44"/>
<path d="M74.4686 25.6455C74.4684 27.8097 72.7139 29.5645 70.5497 29.5645C68.5227 29.5644 66.8557 28.025 66.6522 26.0518C66.6389 25.9202 66.6317 25.7865 66.6317 25.6514C66.6318 23.4903 68.3837 21.7383 70.5448 21.7383H74.4686V25.6455Z" fill="#328F12"/>
<path d="M54.8754 15.6513C54.8754 12.2896 52.1461 9.56437 48.7794 9.56437C45.4126 9.56437 42.6833 12.2896 42.6833 15.6513C42.6833 19.0131 45.4126 21.7383 48.7794 21.7383V29.5644C41.0839 29.5644 34.8456 23.3353 34.8456 15.6513C34.8456 7.96736 41.0839 1.73828 48.7794 1.73828C56.4748 1.73828 62.7131 7.96736 62.7131 15.6513C62.7131 23.3353 56.4748 29.5644 48.7794 29.5644V21.7383C52.1461 21.7383 54.8754 19.0131 54.8754 15.6513Z" fill="#F5821F"/>
<circle cx="48.7793" cy="5.65716" r="3.91887" fill="#EB4204"/>
<path d="M98.4253 5.65132C98.4253 3.49021 100.177 1.73828 102.338 1.73828H122.338C124.499 1.73828 126.251 3.49021 126.251 5.65132C126.251 7.81244 124.499 9.56437 122.338 9.56437H102.338C100.177 9.56437 98.4253 7.81244 98.4253 5.65132Z" fill="#009FDF"/>
<path d="M98.4253 15.6513C98.4253 13.4902 100.177 11.7383 102.338 11.7383H122.338C124.499 11.7383 126.251 13.4902 126.251 15.6513C126.251 17.8124 124.499 19.5644 122.338 19.5644H102.338C100.177 19.5644 98.4253 17.8124 98.4253 15.6513Z" fill="#009FDF"/>
<path d="M98.4253 25.6533C98.4253 23.4922 100.177 21.7402 102.338 21.7402H122.338C124.499 21.7402 126.251 23.4922 126.251 25.6533C126.251 27.8144 124.499 29.5663 122.338 29.5663H102.338C100.177 29.5663 98.4253 27.8144 98.4253 25.6533Z" fill="#009FDF"/>
<path d="M122.518 19.5644C120.354 19.5644 118.6 17.8124 118.6 15.6513L118.6 5.65132C118.6 3.49021 120.354 1.73828 122.518 1.73828C124.683 1.73828 126.437 3.49021 126.437 5.65132L126.437 15.6513C126.437 17.8124 124.683 19.5644 122.518 19.5644Z" fill="#009FDF"/>
<path d="M102.49 29.5644C100.325 29.5644 98.5708 27.8124 98.5708 25.6513L98.5708 15.6513C98.5708 13.4902 100.325 11.7383 102.49 11.7383C104.654 11.7383 106.409 13.4902 106.409 15.6513L106.409 25.6513C106.409 27.8124 104.654 29.5644 102.49 29.5644Z" fill="#009FDF"/>
<path d="M122.337 11.7383C124.487 11.7383 126.231 13.4721 126.249 15.6178V15.6509C126.249 17.812 124.497 19.5639 122.336 19.5639C120.175 19.5639 118.423 17.812 118.423 15.6509V11.7383H122.337Z" fill="#0063C3"/>
<path d="M122.337 1.73828C122.877 1.73828 123.392 1.84762 123.86 2.04569C125.264 2.63998 126.249 4.03049 126.249 5.6509V5.68487C126.231 7.83053 124.487 9.56437 122.337 9.56437H118.423V5.6509C118.423 3.49545 120.166 1.74743 122.319 1.73828H122.337Z" fill="#0063C3"/>
<path d="M106.251 25.6529C106.251 27.814 104.499 29.5659 102.337 29.5659C101.527 29.5659 100.775 29.3196 100.15 28.898C99.1096 28.1948 98.4253 27.0039 98.4253 25.6533C98.4253 23.4922 100.177 21.7402 102.338 21.7402H106.251V25.6529Z" fill="#0063C3"/>
<path d="M102.354 11.7383C104.508 11.7474 106.251 13.4955 106.251 15.6509V19.5644H102.338C100.177 19.5644 98.4253 17.8124 98.4253 15.6513C98.4253 13.4902 100.177 11.7383 102.338 11.7383H102.354Z" fill="#0063C3"/>
<circle cx="16.2298" cy="4.78261" r="4.78261" fill="#CA0A05"/>
<path d="M14.9962 12.306C15.0222 12.3065 15.0483 12.3064 15.0744 12.3073C15.0987 12.3083 15.1229 12.3102 15.1471 12.3116C15.1854 12.3137 15.2237 12.3155 15.2619 12.3188C15.2693 12.3194 15.2767 12.3207 15.284 12.3213C15.6815 12.3575 16.076 12.4549 16.4538 12.6152C16.4738 12.6236 16.4939 12.6318 16.5138 12.6406C16.5442 12.6541 16.5742 12.6684 16.6044 12.6827C16.6338 12.6966 16.6633 12.7105 16.6924 12.7251C16.7128 12.7354 16.7329 12.7463 16.7532 12.757C16.7957 12.7793 16.8381 12.8022 16.8799 12.8262C16.8894 12.8317 16.8989 12.8372 16.9084 12.8427C16.958 12.8717 17.0067 12.9023 17.0551 12.9336C17.0592 12.9362 17.0634 12.9386 17.0674 12.9412C17.1201 12.9755 17.1719 13.0112 17.2231 13.0482C17.2249 13.0495 17.2268 13.0507 17.2286 13.0521C17.23 13.0531 17.2314 13.054 17.2328 13.055C17.2805 13.0897 17.3274 13.1255 17.3736 13.1625C17.3813 13.1686 17.3889 13.1749 17.3966 13.1811C17.4393 13.2158 17.4814 13.2514 17.5228 13.2881C17.5315 13.2958 17.5402 13.3034 17.5488 13.3111C17.5828 13.3417 17.6161 13.3733 17.6491 13.4053C17.6659 13.4215 17.6829 13.4373 17.6993 13.4537C17.7183 13.4728 17.7368 13.4924 17.7554 13.5119C17.7854 13.543 17.8152 13.5742 17.8439 13.6062C17.8486 13.6115 17.8532 13.6169 17.8579 13.6223C17.9472 13.7227 18.0305 13.8271 18.108 13.9348L24.969 23.3641L25.0834 23.5297C26.2156 25.264 25.7982 27.5993 24.1019 28.8299C22.4056 30.0605 20.0524 29.735 18.7505 28.1238L18.628 27.9642L14.9251 22.875L11.2223 27.9642C9.95014 29.7125 7.49933 30.1001 5.74837 28.8299C3.99742 27.5597 3.60927 25.1125 4.88133 23.3641L11.7547 13.9178C11.7559 13.9162 11.7569 13.9144 11.7581 13.9127C11.7914 13.867 11.8259 13.8221 11.8614 13.7777C11.8705 13.7663 11.8795 13.7549 11.8886 13.7437C11.9206 13.7046 11.9536 13.6662 11.9873 13.6282C11.9968 13.6174 12.0061 13.6063 12.0158 13.5955C12.0466 13.5615 12.0784 13.528 12.1106 13.4949C12.1264 13.4786 12.1422 13.4625 12.1582 13.4465C12.179 13.4259 12.2002 13.4056 12.2216 13.3854C12.2514 13.3569 12.2812 13.3286 12.3117 13.3013C12.3204 13.2936 12.3293 13.286 12.3381 13.2784C12.525 13.114 12.7249 12.9697 12.9351 12.8461C12.9511 12.8367 12.9674 12.8277 12.9836 12.8185C13.0203 12.7976 13.0572 12.777 13.0946 12.7574C13.1196 12.7441 13.145 12.7318 13.1702 12.7192C13.1999 12.7044 13.2295 12.6895 13.2595 12.6754C13.2928 12.6598 13.3264 12.6451 13.3599 12.6304C13.3813 12.6212 13.4026 12.6117 13.4241 12.6028C13.4675 12.5848 13.5112 12.5678 13.5551 12.5515C13.5683 12.5466 13.5814 12.5414 13.5946 12.5366C13.7059 12.4964 13.8184 12.4618 13.9318 12.4322C13.9375 12.4307 13.9432 12.4294 13.9488 12.4279C14.0679 12.3974 14.1877 12.3723 14.3081 12.3532C14.3097 12.3529 14.3113 12.3526 14.3128 12.3523C14.4314 12.3337 14.5504 12.3209 14.6696 12.3133C14.6767 12.3128 14.6838 12.312 14.6909 12.3116C14.7378 12.3088 14.7847 12.3071 14.8316 12.306C14.8485 12.3056 14.8653 12.305 14.8822 12.3048C14.9202 12.3044 14.9582 12.3053 14.9962 12.306Z" fill="#E43C30"/>
<path opacity="0.95" d="M24.9527 8.88787C27.0111 8.2201 29.222 9.34486 29.8908 11.4002C30.5596 13.4555 29.4331 15.6631 27.3748 16.331L16.2534 19.9392L16.2509 19.9396C16.1268 19.9799 16.0005 20.0141 15.8724 20.0419C15.8504 20.0467 15.8281 20.0502 15.8061 20.0546C15.7669 20.0625 15.7278 20.0705 15.6883 20.0772C15.6562 20.0826 15.6239 20.0866 15.5918 20.0912C15.562 20.0954 15.5324 20.0999 15.5025 20.1035C15.4673 20.1077 15.4322 20.1109 15.397 20.1141C15.3697 20.1166 15.3424 20.1194 15.315 20.1213C15.2808 20.1237 15.2466 20.1253 15.2125 20.1268C15.1827 20.1281 15.153 20.1296 15.1232 20.1302C15.0878 20.131 15.0526 20.1304 15.0173 20.1302C14.9903 20.13 14.9632 20.1301 14.9361 20.1294C14.9016 20.1284 14.8672 20.1266 14.8328 20.1247C14.8043 20.1232 14.7758 20.1218 14.7473 20.1196C14.7113 20.1169 14.6755 20.1136 14.6397 20.1098C14.6121 20.107 14.5844 20.104 14.5568 20.1005C14.5201 20.0959 14.4836 20.0904 14.4471 20.0848C14.424 20.0812 14.4009 20.0778 14.3778 20.0738C14.3342 20.0662 14.2909 20.0577 14.2476 20.0487C14.2291 20.0448 14.2105 20.0414 14.1919 20.0372C14.1484 20.0275 14.1053 20.0166 14.0622 20.0054C14.0498 20.0022 14.0372 19.9998 14.0248 19.9965L14.004 19.9901C13.9592 19.9778 13.9147 19.9645 13.8705 19.9506L13.8313 19.9392L2.71001 16.331L2.51994 16.2639C0.583041 15.5253 -0.453969 13.3913 0.193956 11.4002C0.841877 9.40911 2.93694 8.29135 4.93862 8.83055L5.13209 8.88787L15.0424 12.1029L24.9527 8.88787Z" fill="#E43C30"/>
<path d="M14.9565 12.3055C14.9959 12.3058 15.0356 12.3058 15.0751 12.3072C15.0918 12.3079 15.1086 12.3094 15.1253 12.3102C15.5282 12.3304 15.9305 12.4129 16.3172 12.5599C16.3209 12.5613 16.3249 12.5627 16.3287 12.5641C16.3707 12.5802 16.4125 12.5974 16.4541 12.6151C16.474 12.6235 16.4942 12.6318 16.5141 12.6405C16.5444 12.654 16.5745 12.6683 16.6046 12.6826C16.634 12.6965 16.6636 12.7104 16.6926 12.725C16.7124 12.7351 16.7321 12.7457 16.7518 12.756C16.796 12.7793 16.8401 12.8032 16.8836 12.8282C16.89 12.8319 16.8963 12.8359 16.9027 12.8397C16.951 12.8678 16.9988 12.8972 17.046 12.9276C17.0565 12.9343 17.0671 12.9411 17.0775 12.948C17.1245 12.9788 17.1711 13.0109 17.2169 13.0439C17.2208 13.0467 17.225 13.0492 17.2289 13.052C17.2313 13.0537 17.2337 13.0557 17.2361 13.0575C17.2855 13.0935 17.334 13.1311 17.3819 13.1696C17.3854 13.1723 17.3891 13.1749 17.3926 13.1777C17.4355 13.2125 17.4776 13.2487 17.5193 13.2855C17.5297 13.2946 17.5405 13.3035 17.5508 13.3127C17.5806 13.3397 17.61 13.3674 17.6392 13.3955C17.6612 13.4165 17.6833 13.4373 17.7047 13.4587C17.7192 13.4734 17.7333 13.4888 17.7476 13.5037C17.7802 13.5375 17.8125 13.5714 17.8437 13.6061C17.8491 13.612 17.8542 13.6183 17.8595 13.6243C17.8972 13.6668 17.934 13.71 17.9696 13.7538C17.9706 13.7551 17.972 13.7564 17.973 13.7577L17.9815 13.7687C18.0204 13.8171 18.0583 13.8661 18.0946 13.916L18.0959 13.9177L21.2885 18.3055L16.2534 19.9393C16.25 19.9404 16.2462 19.9412 16.2428 19.9423C16.059 20.0015 15.8703 20.0469 15.6785 20.0786C15.6656 20.0807 15.6526 20.0825 15.6398 20.0845C15.5901 20.0922 15.5402 20.0991 15.4901 20.1049C15.4716 20.107 15.4529 20.1085 15.4344 20.1104C15.3912 20.1148 15.3478 20.1189 15.3043 20.1219C15.2775 20.1237 15.2506 20.1249 15.2239 20.1261C15.1896 20.1277 15.155 20.1292 15.1206 20.1299C15.0891 20.1306 15.0576 20.1305 15.0262 20.1304C14.9959 20.1302 14.9655 20.1299 14.9352 20.1291C14.8976 20.1281 14.8599 20.1261 14.8225 20.124C14.7986 20.1226 14.7745 20.1215 14.7506 20.1197C14.7106 20.1167 14.6705 20.1129 14.6307 20.1087C14.6091 20.1064 14.5873 20.1042 14.5657 20.1015C14.5215 20.096 14.4773 20.0897 14.4334 20.0828C14.4159 20.08 14.3982 20.0773 14.3807 20.0743C14.3366 20.0667 14.2926 20.0579 14.2489 20.0488C14.2293 20.0448 14.2094 20.0409 14.1898 20.0365C14.1491 20.0274 14.1085 20.0172 14.0682 20.0068C14.0539 20.0031 14.0391 20.0005 14.0248 19.9966L14.0022 19.9898C13.9623 19.9788 13.9223 19.9669 13.8828 19.9546L13.8313 19.9393L8.60657 18.2439L11.7549 13.9177C11.832 13.8118 11.9147 13.7091 12.0033 13.6103C12.0072 13.6059 12.0112 13.6012 12.0152 13.5967C12.0433 13.5656 12.0722 13.5349 12.1015 13.5046C12.1228 13.4824 12.1444 13.4604 12.1661 13.4388C12.185 13.4202 12.2043 13.4019 12.2235 13.3836C12.2519 13.3565 12.2808 13.3298 12.3099 13.3038C12.3216 13.2933 12.3333 13.2827 12.3451 13.2723C12.3839 13.2385 12.4231 13.2051 12.4629 13.173C12.4676 13.1692 12.4727 13.1657 12.4774 13.1619C12.6732 13.0054 12.8815 12.8692 13.0995 12.7548C13.1045 12.7521 13.1097 12.7493 13.1148 12.7467L13.2356 12.6864C13.2435 12.6826 13.2518 12.6791 13.2598 12.6754C13.2916 12.6604 13.3239 12.6465 13.3559 12.6325C13.3798 12.6221 13.4037 12.611 13.4278 12.6011C13.477 12.5807 13.5268 12.5616 13.5766 12.5433C13.5797 12.5422 13.5829 12.541 13.586 12.5399C13.6392 12.5206 13.6929 12.5025 13.7467 12.4856C13.7543 12.4832 13.762 12.4807 13.7696 12.4784C13.8219 12.4622 13.8747 12.4476 13.9274 12.4338C13.9348 12.4318 13.9421 12.4293 13.9495 12.4274C14.1285 12.3815 14.3098 12.3489 14.4917 12.3289C14.4946 12.3286 14.4977 12.3279 14.5006 12.3276C14.5532 12.322 14.6061 12.3176 14.6588 12.314C14.6699 12.3133 14.6812 12.3122 14.6924 12.3115C14.7302 12.3093 14.7681 12.3084 14.8059 12.3072C14.8285 12.3065 14.8513 12.305 14.874 12.3047H14.8995C14.9184 12.3046 14.9375 12.3054 14.9565 12.3055Z" fill="#CA0A05"/>
<path d="M247.565 28.7607H239.315C236.934 28.7607 236.674 27.7824 236.674 26.4781V14.902C236.674 13.565 236.934 12.3911 239.315 12.3911H244.369V6.48896H239.674C237.293 6.48896 236.706 5.41287 236.706 4.27157C236.706 2.93461 237.293 1.98896 239.674 1.98896H247.011C249.391 1.98896 249.652 3.16287 249.652 4.49983V14.315C249.652 16.1411 248.511 16.8911 246.652 16.8911H241.956V24.2607H247.565C249.945 24.2607 250.532 25.3368 250.532 26.4781C250.532 27.815 249.945 28.7607 247.565 28.7607ZM259.597 29.5759C258.13 29.5759 256.956 28.8911 256.956 26.7064V4.43461C256.956 2.24983 258.195 1.59766 259.597 1.59766C260.967 1.59766 262.239 2.18461 262.239 4.43461V26.7064C262.239 28.9564 261 29.5759 259.597 29.5759Z" fill="#002461"/>
<path d="M217.949 29.5762C216.482 29.5762 215.308 28.8914 215.308 26.7066V22.011H206.602C204.221 22.011 203.634 20.9349 203.634 19.7936C203.634 18.4566 204.221 17.511 206.602 17.511H229.265C231.645 17.511 232.232 18.4566 232.232 19.7936C232.232 20.9349 231.645 22.011 229.265 22.011H220.591V26.7066C220.591 28.9566 219.352 29.5762 217.949 29.5762ZM227.439 14.2827H208.721C206.308 14.2827 206.08 13.2066 206.08 11.837V4.66313C206.08 2.47835 207.319 1.82617 208.721 1.82617C210.091 1.82617 211.363 2.41313 211.363 4.66313V9.75008H227.439C229.558 9.75008 229.917 11.0218 229.917 12.0001C229.917 13.1414 229.623 14.2827 227.439 14.2827Z" fill="#002461"/>
<path d="M180.216 29.2498C175.259 29.2498 173.563 26.9672 173.303 22.6955C173.237 21.9781 173.237 19.402 173.237 15.5216C173.237 11.6411 173.237 9.06505 173.303 8.38026C173.563 4.10853 175.129 1.69548 180.216 1.69548C184.976 1.69548 186.868 4.07592 187.129 8.38026C187.129 8.57592 187.129 9.03244 187.161 9.74983C187.161 10.4998 187.161 11.3477 187.161 12.3585V18.7498C187.161 19.7607 187.161 20.6085 187.161 21.3259C187.129 22.0759 187.129 22.5324 187.129 22.6955C187.031 27.0977 185.139 29.2498 180.216 29.2498ZM180.216 24.815C180.998 24.815 181.748 24.5868 181.846 22.6955C181.879 22.4998 181.879 22.0433 181.879 21.2933C181.879 17.902 181.911 14.8694 181.911 12.2281C181.911 11.2172 181.911 10.3694 181.911 9.6194C181.879 8.902 181.879 8.44548 181.846 8.24983C181.683 6.45635 181.031 6.16287 180.216 6.16287C179.433 6.16287 178.683 6.58679 178.585 8.34766C178.52 9.06505 178.52 11.6411 178.52 15.5542C178.52 19.4672 178.487 22.0433 178.585 22.6955C178.585 24.7498 179.466 24.815 180.216 24.815ZM196.292 29.5759C194.824 29.5759 193.65 28.8911 193.65 26.7064V23.4129H191.335C188.955 23.4129 188.498 22.4672 188.498 21.1303C188.498 19.9564 188.987 18.9129 191.335 18.9129H193.65V11.5759H191.335C188.955 11.5759 188.498 10.6303 188.498 9.29331C188.498 8.1194 188.987 7.07592 191.335 7.07592H193.65V4.43461C193.65 2.24983 194.889 1.59766 196.292 1.59766C197.661 1.59766 198.933 2.18461 198.933 4.43461V26.7064C198.933 28.9564 197.694 29.5759 196.292 29.5759Z" fill="#002461"/>
<path d="M162.958 29.9351H144.306C141.926 29.9351 141.665 28.9569 141.665 27.6525V22.1743C141.665 20.5112 142.382 19.3373 144.632 19.3373H163.284C165.665 19.3373 165.926 20.3156 165.926 21.6199V27.0982C165.926 29.2829 164.654 29.9351 162.958 29.9351ZM146.948 25.5982H160.643V23.6743H146.948V25.5982ZM142.578 17.8047C141.828 17.7721 141.013 17.5438 140.524 16.6634C139.741 15.2286 140.263 14.0221 141.795 13.2721C143.393 12.4895 144.469 12.0329 145.317 10.8264C145.48 10.5329 145.643 10.2069 145.774 9.78295H143.295C141.176 9.78295 140.654 9.03295 140.654 7.95686C140.654 6.68512 141.176 6.06556 143.295 6.06556H153.632C155.752 6.06556 156.274 6.68512 156.274 7.95686C156.274 9.03295 155.752 9.78295 153.632 9.78295H151.676C151.839 10.2395 152.002 10.5982 152.23 10.859C153.241 12.0656 154.024 12.3916 155.295 13.0112C156.828 13.7938 157.415 14.8699 156.795 16.3373C156.437 17.1199 155.784 17.5112 155.002 17.6416C154.513 17.6743 153.958 17.609 153.469 17.3482C152.198 16.696 150.469 15.3916 149.002 13.7938C147.763 15.2612 146.295 16.4025 144.567 17.2829C143.948 17.5764 143.263 17.8047 142.578 17.8047ZM152.1 4.7286H145.121C143.034 4.7286 142.643 3.81556 142.643 3.03295C142.643 2.11991 143.067 1.30469 145.121 1.30469H152.1C154.154 1.30469 154.578 2.11991 154.578 3.03295C154.578 3.81556 154.187 4.7286 152.1 4.7286ZM162.632 18.2286C161.165 18.2286 159.991 17.5438 159.991 15.359V4.43512C159.991 2.25034 161.23 1.59817 162.632 1.59817C164.002 1.59817 165.274 2.18512 165.274 4.43512V7.53295H167.654C170.132 7.53295 170.621 8.77208 170.621 9.81556C170.621 11.1199 170.132 12.1634 167.654 12.1634H165.274V15.359C165.274 17.609 164.034 18.2286 162.632 18.2286Z" fill="#002461"/>
</g>
<defs>
<clipPath id="clip0_2978_12493">
<rect width="263" height="30" fill="white"/>
</clipPath>
</defs>
</svg>
