<svg width="98" height="36" viewBox="0 0 98 36" fill="none" xmlns="http://www.w3.org/2000/svg">
<g clip-path="url(#clip0_8160_2540)">
<path d="M5.27761 21.258C5.40711 22.9268 6.66128 24.4678 9.16844 24.4678C11.0713 24.4678 11.9778 23.483 11.9778 22.3705C11.9778 21.4287 11.3303 20.6588 9.68761 20.3162L6.87828 19.6752C2.77044 18.7763 0.913109 16.3376 0.913109 13.3833C0.913109 9.61722 4.28478 6.49219 8.86744 6.49219C14.9189 6.49219 16.9513 10.3012 17.2114 12.5704L12.4129 13.6399C12.2403 12.3997 11.3326 10.8157 8.91061 10.8157C7.39744 10.8157 6.18761 11.7145 6.18761 12.913C6.18761 13.9407 6.96461 14.5817 8.13361 14.7966L11.1599 15.4376C15.3541 16.2946 17.4716 18.8181 17.4716 21.9002C17.4716 25.3248 14.7918 28.8331 9.21278 28.8331C2.81478 28.8308 0.607443 24.7244 0.349609 22.3264L5.27761 21.2568V21.258Z" fill="black"/>
<path d="M69.9756 27.978V0.232422H75.7261V27.978H69.9756Z" fill="black"/>
<path d="M55.6831 6.30078C52.1901 6.30078 49.1708 7.71175 47.1571 10.061C45.6813 11.7821 44.7468 14.0071 44.5648 16.5515C44.5426 16.8534 44.5286 17.1612 44.5286 17.4736V17.4794H44.5193V30.5323L44.5029 36.0228H50.2534V27.341C51.8436 28.1795 53.6869 28.6463 55.6854 28.6463C62.0403 28.6463 66.8399 23.9385 66.8399 17.4759C66.8399 11.0133 62.0414 6.30543 55.6854 6.30543L55.6831 6.30194V6.30078ZM55.7578 23.4043C52.5506 23.4043 49.9513 20.8308 49.9513 17.6559C49.9513 14.4809 52.5506 11.9075 55.7578 11.9075C58.9649 11.9075 61.5643 14.4809 61.5643 17.6559C61.5643 20.8308 58.9649 23.4043 55.7578 23.4043Z" fill="black"/>
<path d="M30.6984 6.49219C24.3436 6.49219 19.5439 11.1571 19.5439 17.6626C19.5439 24.1682 24.3424 28.8331 30.6984 28.8331C37.0544 28.8331 41.8529 24.1252 41.8529 17.6626C41.8529 11.2001 37.0544 6.49219 30.6984 6.49219ZM30.6984 23.4099C27.4924 23.4099 24.8919 20.8364 24.8919 17.6615C24.8919 14.4865 27.4924 11.9131 30.6984 11.9131C33.9044 11.9131 36.5049 14.4865 36.5049 17.6615C36.5049 20.8364 33.9056 23.4099 30.6984 23.4099Z" fill="black"/>
<path d="M80.4211 10.1447L97.7134 10.1191V22.2535H89.3146C89.3146 22.2535 87.3383 27.1344 97.7134 28.1644V33.9093C97.7134 33.9093 89.8034 33.0453 84.6678 29.8785C82.0078 28.2376 80.4199 25.3297 80.4199 22.2279V10.1459H80.4223L80.4211 10.1447Z" fill="#2361FF"/>
</g>
<defs>
<clipPath id="clip0_8160_2540">
<rect width="98" height="36" fill="white"/>
</clipPath>
</defs>
</svg>
