<svg width="170" height="28" viewBox="0 0 170 28" fill="none" xmlns="http://www.w3.org/2000/svg">
<path d="M128.864 9.66787L126.688 9.63676H126.588C125.78 9.60176 125.076 9.08065 124.796 8.30676C123.724 5.36287 120.9 2.94009 117.24 1.82398C113.06 0.548425 108.468 1.1512 104.936 3.4262C104.368 3.33287 103.796 3.2862 103.244 3.2862H99.8203V13.9573H102.18V5.57676H103.244C103.808 5.57676 104.38 5.63898 104.944 5.75954C108.268 6.47898 110.1 8.90954 110.1 12.6001C110.1 15.9756 107.276 18.7251 103.8 18.7251H103.54V21.0195H103.8C108.576 21.0195 112.46 17.2434 112.46 12.6001C112.46 8.82398 110.876 5.93843 107.98 4.42176C110.62 3.30565 113.708 3.15398 116.54 4.01342C119.496 4.91565 121.752 6.80565 122.576 9.07287C123.184 10.7412 124.724 11.8612 126.508 11.9273L128.836 11.9623C129.024 11.9623 129.18 12.114 129.184 12.2695C129.12 12.9229 127.884 18.1806 127.352 19.814C125.76 20.2106 122.68 20.6229 121.58 20.6695C121.132 20.689 120.736 20.6851 120.348 20.6851C118.096 20.6734 116.744 20.6695 113.1 24.5623L112.904 24.7684L114.796 26.1179L114.952 25.974C118.116 23.0806 118.864 23.0573 121.076 22.9834C121.264 22.9756 121.464 22.9718 121.672 22.9601C122.92 22.9095 126.488 22.474 128.572 21.8595L129.028 21.7234L129.26 21.319C129.836 20.3079 131.528 13.059 131.532 12.324C131.548 10.8773 130.348 9.68342 128.86 9.66398L128.864 9.66787Z" fill="#256FFF" stroke="#256FFF" stroke-width="0.2"/>
<path d="M118.48 11.6901C119.383 11.6901 120.116 10.978 120.116 10.0996C120.116 9.22115 119.383 8.50903 118.48 8.50903C117.576 8.50903 116.844 9.22115 116.844 10.0996C116.844 10.978 117.576 11.6901 118.48 11.6901Z" fill="#256FFF"/>
<path d="M0.800086 15.9446L2.46809 13.1719C3.15609 13.6424 3.97609 14.0119 4.92409 14.2763C5.87609 14.5407 6.83609 14.673 7.80409 14.673C8.61209 14.673 9.24009 14.5563 9.68408 14.3191C10.1281 14.0819 10.3521 13.7513 10.3521 13.3157C10.3521 12.8802 10.1281 12.5535 9.68408 12.328C9.24009 12.1024 8.50009 11.9391 7.46809 11.8419C5.52809 11.6863 4.01609 11.208 2.93209 10.4107C1.85209 9.61352 1.30809 8.56741 1.30809 7.26852C1.30809 6.3663 1.58009 5.5613 2.12809 4.86519C2.67609 4.16908 3.44809 3.62464 4.44809 3.24352C5.44809 2.86241 6.60809 2.66797 7.92009 2.66797C9.07209 2.66797 10.1601 2.81186 11.1801 3.09575C12.2001 3.37964 13.1161 3.78797 13.9241 4.32075L12.2841 7.03519C11.0721 6.28852 9.67609 5.91519 8.10009 5.91519C6.20009 5.91519 5.24809 6.3663 5.24809 7.27241C5.24809 7.66519 5.44809 7.9763 5.85609 8.20186C6.26009 8.42741 6.92809 8.57908 7.85609 8.66075C10.0401 8.87852 11.6641 9.36075 12.7241 10.1074C13.7841 10.8541 14.3161 11.9274 14.3161 13.3235C14.3161 14.7196 13.7161 15.8746 12.5121 16.7302C11.3081 17.5857 9.67609 18.0135 7.61209 18.0135C5.04409 18.0135 2.76809 17.3252 0.788086 15.9485L0.800086 15.9446Z" fill="#0F1419"/>
<path d="M17.7885 16.108C16.6645 14.8986 16.1045 13.2613 16.1045 11.1963V3.05688H20.1405V10.9591C20.1405 12.0597 20.4285 12.9269 21.0045 13.553C21.5805 14.183 22.3525 14.498 23.3245 14.498C24.3965 14.498 25.2605 14.1441 25.9165 13.4363C26.5725 12.7286 26.9005 11.8147 26.9005 10.6947V3.05688H30.9365V17.6247H27.4485L27.1765 15.9447C26.5885 16.5747 25.8765 17.0608 25.0365 17.403C24.1965 17.7452 23.2805 17.9202 22.2925 17.9202C20.4125 17.9202 18.9085 17.3174 17.7885 16.108Z" fill="#0F1419"/>
<path d="M33.9845 3.0568H37.4725L37.3485 4.88847C38.4405 3.47291 40.3045 2.76514 42.0245 2.76514C42.7525 2.76514 43.4565 2.87791 44.1325 3.10347C44.8085 3.32903 45.3805 3.65958 45.8445 4.09125L44.0845 7.12847C43.3165 6.61903 42.5085 6.36236 41.6565 6.36236C40.5445 6.36236 39.6605 6.72791 39.0005 7.45514C38.3445 8.18236 38.0165 9.20514 38.0165 10.5235V17.6324H33.9805V3.0568H33.9845Z" fill="#0F1419"/>
<path d="M47.2402 3.05688H51.6402L53.5802 7.77411L55.7642 13.5258L57.9162 7.77411L59.8562 3.05688H64.1642L57.8242 17.6247H53.6082L47.2402 3.05688Z" fill="#0F1419"/>
<path d="M68.6362 17.0646C67.3922 16.4346 66.4322 15.544 65.7562 14.3968C65.0802 13.2457 64.7402 11.904 64.7402 10.3718C64.7402 8.83958 65.0682 7.55625 65.7242 6.40514C66.3802 5.25403 67.3042 4.35958 68.5002 3.7218C69.6922 3.08403 71.0682 2.76514 72.6242 2.76514C75.0722 2.76514 76.9922 3.43014 78.3882 4.75625C79.7842 6.08236 80.4802 7.89847 80.4802 10.1968C80.4802 10.6479 80.4482 11.1301 80.3882 11.6435H68.8322C68.9722 12.569 69.4322 13.304 70.2122 13.8562C70.9922 14.4085 71.9762 14.6807 73.1682 14.6807C73.9762 14.6807 74.7562 14.5562 75.5042 14.3112C76.2522 14.0662 76.8682 13.7279 77.3562 13.2924L79.6002 15.5324C78.8122 16.3179 77.8402 16.9285 76.6882 17.3601C75.5362 17.7918 74.3122 18.0096 73.0162 18.0096C71.3362 18.0096 69.8762 17.6946 68.6322 17.0646H68.6362ZM76.6002 9.0418C76.5202 8.0968 76.1362 7.35014 75.4482 6.8018C74.7602 6.24958 73.8602 5.97736 72.7482 5.97736C71.6362 5.97736 70.8002 6.24958 70.1242 6.79014C69.4482 7.33069 69.0362 8.08514 68.8962 9.04569H76.6002V9.0418Z" fill="#0F1419"/>
<path d="M86.4123 17.4497L80.5283 3.05688H84.8643L87.0803 8.75022L88.6563 13.203L90.3843 8.75022L92.7803 3.05688H97.1483L87.7763 24.1424H83.4403L86.4123 17.4497Z" fill="#0F1419"/>
<path d="M137.648 17.7528C136.424 17.1034 135.48 16.2051 134.812 15.0539C134.144 13.9028 133.812 12.5923 133.812 11.1184C133.812 9.6445 134.144 8.33005 134.812 7.18283C135.48 6.03172 136.424 5.13339 137.648 4.48394C138.872 3.8345 140.292 3.51172 141.908 3.51172C143.524 3.51172 144.949 3.8345 146.169 4.48394C147.393 5.13339 148.337 6.03172 149.005 7.18283C149.673 8.33394 150.005 9.6445 150.005 11.1184C150.005 12.5923 149.673 13.9067 149.005 15.0539C148.337 16.2051 147.393 17.1034 146.169 17.7528C144.945 18.4023 143.524 18.7251 141.908 18.7251C140.292 18.7251 138.868 18.4023 137.648 17.7528ZM138.953 14.1128C139.713 14.9101 140.696 15.3067 141.908 15.3067C143.12 15.3067 144.109 14.9101 144.865 14.1128C145.625 13.3156 146 12.3201 146 11.1184C146 9.91672 145.621 8.92116 144.865 8.12394C144.105 7.32672 143.12 6.93005 141.908 6.93005C140.696 6.93005 139.709 7.32672 138.953 8.12394C138.193 8.92116 137.817 9.91672 137.817 11.1184C137.817 12.3201 138.197 13.3156 138.953 14.1128Z" fill="#0F1419"/>
<path d="M166.512 6.57602C167.044 7.19436 167.484 7.87102 167.752 8.56714C168.016 9.2438 168.148 9.99825 168.148 10.8227C168.148 12.0205 167.856 13.0821 167.268 14.0077C166.68 14.9332 165.832 15.6799 164.72 16.2477C165.812 16.6988 166.656 17.321 167.252 18.1066C167.848 18.8921 168.148 19.8177 168.148 20.8794C168.148 22.0966 167.816 23.166 167.148 24.0799C166.48 24.9938 165.536 25.7016 164.312 26.2032C163.088 26.7049 161.668 26.9538 160.052 26.9538C158.436 26.9538 156.916 26.6738 155.684 26.1138C154.452 25.5538 153.52 24.7682 152.892 23.7532C152.264 22.7421 151.992 21.5755 152.072 20.2571H155.984C155.944 21.2799 156.288 22.0849 157.016 22.676C157.744 23.2671 158.756 23.5588 160.048 23.5588C161.24 23.5588 162.208 23.3021 162.944 22.7927C163.68 22.2794 164.052 21.6144 164.052 20.786C164.052 19.9577 163.708 19.2849 163.02 18.826C162.332 18.3632 161.36 18.1338 160.108 18.1338C158.448 18.1338 157.004 17.8344 155.772 17.2355C154.54 16.6366 153.588 15.7849 152.92 14.6844C152.252 13.5838 151.92 12.2966 151.92 10.8227C151.92 9.3488 152.264 8.14325 152.952 7.03491C153.64 5.92269 154.6 5.05547 155.832 4.42547C157.064 3.79547 158.46 3.48047 160.016 3.48047C161.452 3.48047 162.704 3.76436 163.776 4.33602C164.74 4.88047 165.724 5.66602 166.508 6.57602H166.512ZM157.06 13.6382C157.82 14.3577 158.816 14.7155 160.048 14.7155C161.28 14.7155 162.276 14.3577 163.036 13.6382C163.796 12.9188 164.172 11.9816 164.172 10.8227C164.172 9.6638 163.792 8.69547 163.036 7.97602C162.276 7.25658 161.28 6.8988 160.048 6.8988C158.816 6.8988 157.82 7.25658 157.06 7.97602C156.3 8.69547 155.924 9.64047 155.924 10.8227C155.924 12.0049 156.304 12.9227 157.06 13.6382Z" fill="#0F1419"/>
<path d="M166.72 7.98392C168.132 7.98392 169.276 6.87134 169.276 5.49892C169.276 4.12649 168.132 3.01392 166.72 3.01392C165.308 3.01392 164.164 4.12649 164.164 5.49892C164.164 6.87134 165.308 7.98392 166.72 7.98392Z" fill="#0F1419"/>
</svg>
