<svg width="203" height="56" viewBox="0 0 203 56" fill="none" xmlns="http://www.w3.org/2000/svg">
<g clip-path="url(#clip0_4371_86170)">
<g clip-path="url(#clip1_4371_86170)">
<path d="M10.7332 22.8423C6.6533 22.8423 3.33398 19.523 3.33398 15.4431C3.33398 11.3633 6.6533 8.04395 10.7332 8.04395C14.813 8.04395 18.1323 11.3633 18.1323 15.4431C18.1323 19.523 14.813 22.8423 10.7332 22.8423Z" fill="#0E0A3C" fill-opacity="0.4"/>
<path d="M19.4851 39.9992H1.98095C0.945133 39.9992 0.105469 39.1596 0.105469 38.1239V34.7291C0.105469 28.869 4.87302 24.1016 10.733 24.1016C16.5929 24.1016 21.3605 28.8691 21.3605 34.7291V38.1239C21.3605 39.1596 20.5208 39.9992 19.4851 39.9992Z" fill="#0E0A3C" fill-opacity="0.4"/>
<path d="M31.2407 18.645C26.1627 18.645 22.0312 14.5136 22.0312 9.43552C22.0312 4.35749 26.1627 0.226074 31.2407 0.226074C36.3187 0.226074 40.4501 4.35749 40.4501 9.43552C40.4501 14.5136 36.3187 18.645 31.2407 18.645Z" fill="#0E0A3C"/>
<path d="M42.1326 39.9992H20.3461C19.057 39.9992 18.0117 38.9541 18.0117 37.6649V33.4395C18.0117 26.1457 23.9457 20.2119 31.2393 20.2119C38.533 20.2119 44.467 26.1459 44.467 33.4395V37.6649C44.467 38.9541 43.4219 39.9992 42.1326 39.9992Z" fill="#0E0A3C"/>
<path d="M51.7449 22.8423C47.665 22.8423 44.3457 19.523 44.3457 15.4431C44.3457 11.3633 47.665 8.04395 51.7449 8.04395C55.8247 8.04395 59.1441 11.3633 59.1441 15.4431C59.1439 19.523 55.8247 22.8423 51.7449 22.8423Z" fill="#0E0A3C" fill-opacity="0.4"/>
<path d="M60.4968 39.9994H42.9927C41.957 39.9994 41.1172 39.1597 41.1172 38.1239V34.7291C41.1172 28.869 45.8847 24.1016 51.7447 24.1016C57.6047 24.1016 62.3723 28.8691 62.3723 34.7292V38.124C62.3723 39.1597 61.5326 39.9994 60.4968 39.9994Z" fill="#0E0A3C" fill-opacity="0.4"/>
</g>
<g clip-path="url(#clip2_4371_86170)">
<path fill-rule="evenodd" clip-rule="evenodd" d="M168.529 13.3333V40H178.226V26.2251H185.525C188.001 26.2251 190.196 25.6436 192.109 24.4805C194.06 23.3175 195.599 21.7417 196.724 19.7532C197.887 17.7273 198.469 15.4387 198.469 12.8874C198.469 10.4488 197.887 8.25397 196.724 6.30303C195.599 4.35209 194.06 2.81385 192.109 1.68831C190.196 0.562771 188.001 0 185.525 0H168.529V8.48717H178.226V13.3333H168.529ZM184.174 17.8857H178.226V8.48717L184.174 8.48744C185 8.48744 185.75 8.67504 186.425 9.05021C187.101 9.4254 187.645 9.95065 188.057 10.626C188.47 11.3013 188.676 12.1267 188.676 13.1022C188.676 14.0401 188.47 14.8655 188.057 15.5784C187.645 16.2912 187.101 16.854 186.425 17.2667C185.75 17.6794 185 17.8857 184.174 17.8857Z" fill="#0E0A3C"/>
<path d="M103.074 0V40H130.953V31.5152H112.165V23.6364H128.529V16.3636H112.165V8.48485H134.589V40H164.892V31.5152H143.68V23.6364H163.161V16.3636H143.68V8.48485H169.741V0H103.074Z" fill="#0E0A3C"/>
<path d="M82.2473 40V19.7532L82.6413 22.5108L66.7148 0H79.2084L91.3642 17.4459L84.7798 17.2771L95.7538 0H107.91L92.6586 23.1299L93.5027 19.303V40H82.2473Z" fill="#0E0A3C"/>
</g>
<path d="M2.4795 53V49.6845L2.546 50.15L-0.1425 46.35H1.9665L4.0185 49.295L2.907 49.2665L4.7595 46.35H6.8115L4.237 50.2545L4.3795 49.6085V53H2.4795ZM9.76741 53.095C9.27341 53.095 8.83324 52.9842 8.44691 52.7625C8.06691 52.5408 7.76608 52.2337 7.54441 51.841C7.32908 51.4483 7.22141 51.0018 7.22141 50.5015C7.22141 50.0075 7.32908 49.5673 7.54441 49.181C7.76608 48.7947 8.06691 48.4907 8.44691 48.269C8.83324 48.0473 9.27341 47.9365 9.76741 47.9365C10.2551 47.9365 10.6889 48.0473 11.0689 48.269C11.4552 48.4907 11.7561 48.7947 11.9714 49.181C12.1931 49.5673 12.3039 50.0075 12.3039 50.5015C12.3039 51.0018 12.1931 51.4483 11.9714 51.841C11.7561 52.2337 11.4552 52.5408 11.0689 52.7625C10.6889 52.9842 10.2551 53.095 9.76741 53.095ZM9.76741 52.4205C10.1157 52.4205 10.4261 52.3382 10.6984 52.1735C10.9707 52.0025 11.1829 51.7745 11.3349 51.4895C11.4869 51.1982 11.5629 50.8688 11.5629 50.5015C11.5629 50.1342 11.4869 49.808 11.3349 49.523C11.1829 49.238 10.9707 49.0163 10.6984 48.858C10.4261 48.6933 10.1157 48.611 9.76741 48.611C9.41908 48.611 9.10558 48.6933 8.82691 48.858C8.55458 49.0163 8.33924 49.2412 8.18091 49.5325C8.02891 49.8175 7.95608 50.1405 7.96241 50.5015C7.95608 50.8688 8.02891 51.1982 8.18091 51.4895C8.33924 51.7745 8.55458 52.0025 8.82691 52.1735C9.10558 52.3382 9.41908 52.4205 9.76741 52.4205ZM15.3099 53.095C14.9299 53.095 14.6069 53.019 14.3409 52.867C14.0813 52.7087 13.8818 52.4807 13.7424 52.183C13.6094 51.8853 13.5429 51.5148 13.5429 51.0715V48.041H14.2649V50.929C14.2649 51.2647 14.3093 51.5465 14.3979 51.7745C14.4929 51.9962 14.6323 52.164 14.8159 52.278C15.0059 52.392 15.2371 52.449 15.5094 52.449C15.7184 52.449 15.9116 52.4142 16.0889 52.3445C16.2663 52.2685 16.4214 52.1672 16.5544 52.0405C16.6874 51.9138 16.7919 51.765 16.8679 51.594C16.9439 51.423 16.9819 51.2425 16.9819 51.0525V48.041H17.6944V53H16.9914L16.9629 51.955L17.0769 51.898C17.0009 52.1197 16.8743 52.3223 16.6969 52.506C16.5196 52.6833 16.3074 52.8258 16.0604 52.9335C15.8198 53.0412 15.5696 53.095 15.3099 53.095ZM19.2907 53V48.041H19.9937L20.0222 49.0765L19.9082 49.124C19.9715 48.9087 20.095 48.7123 20.2787 48.535C20.4624 48.3577 20.6809 48.2152 20.9342 48.1075C21.1939 47.9935 21.4599 47.9365 21.7322 47.9365C22.0995 47.9365 22.4067 48.0093 22.6537 48.155C22.9007 48.3007 23.0875 48.5255 23.2142 48.8295C23.3409 49.1335 23.4042 49.5198 23.4042 49.9885V53H22.6822V50.0265C22.6822 49.6972 22.6379 49.428 22.5492 49.219C22.4669 49.0037 22.337 48.8453 22.1597 48.744C21.9824 48.6427 21.7639 48.5952 21.5042 48.6015C21.2889 48.6015 21.0894 48.6395 20.9057 48.7155C20.722 48.7852 20.5637 48.8833 20.4307 49.01C20.2977 49.1367 20.1932 49.2823 20.1172 49.447C20.0412 49.6117 20.0032 49.789 20.0032 49.979V53H19.6517C19.6074 53 19.5567 53 19.4997 53C19.4427 53 19.373 53 19.2907 53ZM27.1108 55.185C26.7435 55.185 26.3952 55.128 26.0658 55.014C25.7365 54.9 25.4642 54.7575 25.2488 54.5865L25.5338 53.988C25.6605 54.0893 25.8062 54.178 25.9708 54.254C26.1418 54.3363 26.3255 54.3997 26.5218 54.444C26.7182 54.4947 26.9177 54.52 27.1203 54.52C27.4877 54.52 27.798 54.4503 28.0513 54.311C28.311 54.178 28.5073 53.9785 28.6403 53.7125C28.7797 53.4465 28.8493 53.1172 28.8493 52.7245V51.7745L28.9633 51.746C28.9063 51.9867 28.7828 52.2115 28.5928 52.4205C28.4028 52.6232 28.1717 52.7878 27.8993 52.9145C27.627 53.0348 27.3388 53.095 27.0348 53.095C26.5725 53.095 26.1577 52.9842 25.7903 52.7625C25.4293 52.5408 25.1443 52.2368 24.9353 51.8505C24.7263 51.4578 24.6218 51.0145 24.6218 50.5205C24.6218 50.0202 24.7263 49.5768 24.9353 49.1905C25.1507 48.7978 25.4388 48.4907 25.7998 48.269C26.1608 48.0473 26.5662 47.9365 27.0158 47.9365C27.2122 47.9365 27.4022 47.9618 27.5858 48.0125C27.7695 48.0568 27.9373 48.1233 28.0893 48.212C28.2477 48.3007 28.3902 48.402 28.5168 48.516C28.6435 48.63 28.748 48.7535 28.8303 48.8865C28.919 49.0195 28.9823 49.1557 29.0203 49.295L28.8208 49.2665L28.8493 48.041H29.5618V52.696C29.5618 53.095 29.5048 53.4465 29.3908 53.7505C29.2768 54.0608 29.109 54.3205 28.8873 54.5295C28.672 54.7448 28.4123 54.9063 28.1083 55.014C27.8107 55.128 27.4782 55.185 27.1108 55.185ZM27.1203 52.411C27.456 52.411 27.7537 52.3318 28.0133 52.1735C28.2793 52.0088 28.4883 51.784 28.6403 51.499C28.7923 51.214 28.8683 50.8847 28.8683 50.511C28.8683 50.1437 28.7923 49.8175 28.6403 49.5325C28.4947 49.2475 28.2888 49.0227 28.0228 48.858C27.7568 48.6933 27.456 48.611 27.1203 48.611C26.7783 48.611 26.4743 48.6933 26.2083 48.858C25.9487 49.0227 25.7428 49.2475 25.5908 49.5325C25.4388 49.8175 25.3628 50.1437 25.3628 50.511C25.3628 50.872 25.4357 51.1982 25.5813 51.4895C25.7333 51.7745 25.9392 51.9993 26.1988 52.164C26.4648 52.3287 26.772 52.411 27.1203 52.411ZM33.3515 53.095C32.8575 53.095 32.4173 52.9842 32.031 52.7625C31.651 52.5408 31.3501 52.2337 31.1285 51.841C30.9131 51.4483 30.8055 51.0018 30.8055 50.5015C30.8055 50.0075 30.9131 49.5673 31.1285 49.181C31.3501 48.7947 31.651 48.4907 32.031 48.269C32.4173 48.0473 32.8575 47.9365 33.3515 47.9365C33.8391 47.9365 34.273 48.0473 34.653 48.269C35.0393 48.4907 35.3401 48.7947 35.5555 49.181C35.7771 49.5673 35.888 50.0075 35.888 50.5015C35.888 51.0018 35.7771 51.4483 35.5555 51.841C35.3401 52.2337 35.0393 52.5408 34.653 52.7625C34.273 52.9842 33.8391 53.095 33.3515 53.095ZM33.3515 52.4205C33.6998 52.4205 34.0101 52.3382 34.2825 52.1735C34.5548 52.0025 34.767 51.7745 34.919 51.4895C35.071 51.1982 35.147 50.8688 35.147 50.5015C35.147 50.1342 35.071 49.808 34.919 49.523C34.767 49.238 34.5548 49.0163 34.2825 48.858C34.0101 48.6933 33.6998 48.611 33.3515 48.611C33.0031 48.611 32.6896 48.6933 32.411 48.858C32.1386 49.0163 31.9233 49.2412 31.765 49.5325C31.613 49.8175 31.5401 50.1405 31.5465 50.5015C31.5401 50.8688 31.613 51.1982 31.765 51.4895C31.9233 51.7745 32.1386 52.0025 32.411 52.1735C32.6896 52.3382 33.0031 52.4205 33.3515 52.4205ZM37.1365 53V48.041H37.8395L37.868 49.0765L37.754 49.124C37.8173 48.9087 37.9408 48.7123 38.1245 48.535C38.3081 48.3577 38.5266 48.2152 38.78 48.1075C39.0396 47.9935 39.3056 47.9365 39.578 47.9365C39.9453 47.9365 40.2525 48.0093 40.4995 48.155C40.7465 48.3007 40.9333 48.5255 41.06 48.8295C41.1866 49.1335 41.25 49.5198 41.25 49.9885V53H40.528V50.0265C40.528 49.6972 40.4836 49.428 40.395 49.219C40.3126 49.0037 40.1828 48.8453 40.0055 48.744C39.8281 48.6427 39.6096 48.5952 39.35 48.6015C39.1346 48.6015 38.9351 48.6395 38.7515 48.7155C38.5678 48.7852 38.4095 48.8833 38.2765 49.01C38.1435 49.1367 38.039 49.2823 37.963 49.447C37.887 49.6117 37.849 49.789 37.849 49.979V53H37.4975C37.4531 53 37.4025 53 37.3455 53C37.2885 53 37.2188 53 37.1365 53ZM45.0041 53.095C44.5101 53.095 44.0699 52.9873 43.6836 52.772C43.3036 52.5567 43.0059 52.2558 42.7906 51.8695C42.5753 51.4832 42.4676 51.0398 42.4676 50.5395C42.4676 50.1532 42.5278 49.8048 42.6481 49.4945C42.7684 49.1778 42.9363 48.9023 43.1516 48.668C43.3733 48.4337 43.6361 48.2532 43.9401 48.1265C44.2441 47.9935 44.5734 47.927 44.9281 47.927C45.2638 47.927 45.5678 47.9872 45.8401 48.1075C46.1188 48.2278 46.3563 48.3957 46.5526 48.611C46.7553 48.82 46.9073 49.0702 47.0086 49.3615C47.1099 49.6528 47.1543 49.9727 47.1416 50.321L47.1321 50.6535H42.9996L42.8951 50.055H46.5906L46.4196 50.2165V49.9885C46.4069 49.7605 46.3404 49.542 46.2201 49.333C46.0998 49.1177 45.9288 48.9435 45.7071 48.8105C45.4918 48.6775 45.2321 48.611 44.9281 48.611C44.5734 48.611 44.2663 48.6838 44.0066 48.8295C43.7469 48.9688 43.5474 49.1778 43.4081 49.4565C43.2688 49.7352 43.1991 50.0803 43.1991 50.492C43.1991 50.8847 43.2751 51.2267 43.4271 51.518C43.5791 51.803 43.7944 52.0247 44.0731 52.183C44.3581 52.3413 44.7001 52.4205 45.0991 52.4205C45.3334 52.4205 45.5646 52.3825 45.7926 52.3065C46.0269 52.2242 46.2834 52.0658 46.5621 51.8315L46.9326 52.3445C46.7869 52.4902 46.6128 52.62 46.4101 52.734C46.2074 52.8417 45.9858 52.9303 45.7451 53C45.5044 53.0633 45.2574 53.095 45.0041 53.095ZM51.3292 53V46.35H56.1647V47.8985H53.1342V51.4515H56.3072V53H51.3292ZM52.2222 50.359V48.896H55.7847V50.359H52.2222ZM57.6959 53V48.041H58.4084L58.4274 49.1715L58.2849 49.219C58.3355 49.029 58.4179 48.858 58.5319 48.706C58.6522 48.5477 58.7947 48.4115 58.9594 48.2975C59.124 48.1835 59.3045 48.098 59.5009 48.041C59.6972 47.9777 59.903 47.946 60.1184 47.946C60.378 47.946 60.6092 47.9903 60.8119 48.079C61.0209 48.1613 61.195 48.307 61.3344 48.516C61.48 48.7187 61.5909 48.9878 61.6669 49.3235L61.4959 49.238L61.5624 49.0765C61.6257 48.9308 61.7175 48.7915 61.8379 48.6585C61.9645 48.5192 62.107 48.3957 62.2654 48.288C62.43 48.1803 62.6074 48.098 62.7974 48.041C62.9937 47.9777 63.1932 47.946 63.3959 47.946C63.7442 47.946 64.0387 48.022 64.2794 48.174C64.52 48.3197 64.7005 48.5445 64.8209 48.8485C64.9475 49.1525 65.0109 49.5388 65.0109 50.0075V53H64.2794V50.0455C64.2794 49.7162 64.2382 49.447 64.1559 49.238C64.0735 49.029 63.95 48.8738 63.7854 48.7725C63.627 48.6648 63.4244 48.611 63.1774 48.611C62.962 48.611 62.7625 48.649 62.5789 48.725C62.4015 48.7947 62.2464 48.896 62.1134 49.029C61.9867 49.1557 61.8854 49.3013 61.8094 49.466C61.7397 49.6307 61.7049 49.808 61.7049 49.998V53H60.9829V50.036C60.9829 49.7193 60.9385 49.4565 60.8499 49.2475C60.7675 49.0385 60.644 48.8802 60.4794 48.7725C60.3147 48.6648 60.112 48.611 59.8714 48.611C59.6624 48.611 59.4692 48.649 59.2919 48.725C59.1145 48.7947 58.9594 48.8928 58.8264 49.0195C58.6997 49.1462 58.5984 49.2918 58.5224 49.4565C58.4527 49.6212 58.4179 49.7985 58.4179 49.9885V53H57.6959ZM66.5701 55.09V48.041H67.2826L67.3016 49.2475L67.1686 49.2665C67.2256 49.0258 67.3491 48.8073 67.5391 48.611C67.7291 48.4083 67.9603 48.2468 68.2326 48.1265C68.505 48.0062 68.7931 47.946 69.0971 47.946C69.5405 47.946 69.9363 48.0568 70.2846 48.2785C70.6393 48.5002 70.9211 48.8042 71.1301 49.1905C71.3391 49.5768 71.4436 50.0202 71.4436 50.5205C71.4436 51.0145 71.3423 51.4547 71.1396 51.841C70.937 52.2273 70.6583 52.5345 70.3036 52.7625C69.949 52.9842 69.55 53.095 69.1066 53.095C68.7963 53.095 68.5018 53.0317 68.2231 52.905C67.9445 52.7783 67.707 52.6137 67.5106 52.411C67.3143 52.202 67.1845 51.9772 67.1211 51.7365H67.2921V55.09H66.5701ZM68.9926 52.411C69.3283 52.411 69.626 52.3287 69.8856 52.164C70.1453 51.9993 70.3511 51.7745 70.5031 51.4895C70.6551 51.2045 70.7311 50.8815 70.7311 50.5205C70.7311 50.1532 70.6551 49.827 70.5031 49.542C70.3511 49.257 70.1453 49.0322 69.8856 48.8675C69.626 48.7028 69.3283 48.6205 68.9926 48.6205C68.657 48.6205 68.3561 48.7028 68.0901 48.8675C67.8305 49.0258 67.6246 49.2475 67.4726 49.5325C67.3206 49.8175 67.2446 50.1437 67.2446 50.511C67.2446 50.8783 67.3206 51.2045 67.4726 51.4895C67.6246 51.7745 67.8305 51.9993 68.0901 52.164C68.3561 52.3287 68.657 52.411 68.9926 52.411ZM72.7078 53V45.97H73.4203V53H72.7078ZM77.1333 53.095C76.6393 53.095 76.1992 52.9842 75.8128 52.7625C75.4328 52.5408 75.132 52.2337 74.9103 51.841C74.695 51.4483 74.5873 51.0018 74.5873 50.5015C74.5873 50.0075 74.695 49.5673 74.9103 49.181C75.132 48.7947 75.4328 48.4907 75.8128 48.269C76.1992 48.0473 76.6393 47.9365 77.1333 47.9365C77.621 47.9365 78.0548 48.0473 78.4348 48.269C78.8212 48.4907 79.122 48.7947 79.3373 49.181C79.559 49.5673 79.6698 50.0075 79.6698 50.5015C79.6698 51.0018 79.559 51.4483 79.3373 51.841C79.122 52.2337 78.8212 52.5408 78.4348 52.7625C78.0548 52.9842 77.621 53.095 77.1333 53.095ZM77.1333 52.4205C77.4817 52.4205 77.792 52.3382 78.0643 52.1735C78.3367 52.0025 78.5488 51.7745 78.7008 51.4895C78.8528 51.1982 78.9288 50.8688 78.9288 50.5015C78.9288 50.1342 78.8528 49.808 78.7008 49.523C78.5488 49.238 78.3367 49.0163 78.0643 48.858C77.792 48.6933 77.4817 48.611 77.1333 48.611C76.785 48.611 76.4715 48.6933 76.1928 48.858C75.9205 49.0163 75.7052 49.2412 75.5468 49.5325C75.3948 49.8175 75.322 50.1405 75.3283 50.5015C75.322 50.8688 75.3948 51.1982 75.5468 51.4895C75.7052 51.7745 75.9205 52.0025 76.1928 52.1735C76.4715 52.3382 76.785 52.4205 77.1333 52.4205ZM81.5688 55.185L82.5283 52.848L82.5948 53.5225L80.1058 48.041H80.9133L82.6138 51.841C82.6645 51.9423 82.7151 52.0627 82.7658 52.202C82.8165 52.335 82.864 52.468 82.9083 52.601L82.6423 52.5725C82.6866 52.4648 82.7278 52.354 82.7658 52.24C82.8101 52.126 82.8513 52.0152 82.8893 51.9075L84.3808 48.041H85.1978L83.1933 53L82.3383 55.185H81.5688ZM88.2479 53.095C87.7539 53.095 87.3137 52.9873 86.9274 52.772C86.5474 52.5567 86.2497 52.2558 86.0344 51.8695C85.819 51.4832 85.7114 51.0398 85.7114 50.5395C85.7114 50.1532 85.7715 49.8048 85.8919 49.4945C86.0122 49.1778 86.18 48.9023 86.3954 48.668C86.617 48.4337 86.8799 48.2532 87.1839 48.1265C87.4879 47.9935 87.8172 47.927 88.1719 47.927C88.5075 47.927 88.8115 47.9872 89.0839 48.1075C89.3625 48.2278 89.6 48.3957 89.7964 48.611C89.999 48.82 90.151 49.0702 90.2524 49.3615C90.3537 49.6528 90.398 49.9727 90.3854 50.321L90.3759 50.6535H86.2434L86.1389 50.055H89.8344L89.6634 50.2165V49.9885C89.6507 49.7605 89.5842 49.542 89.4639 49.333C89.3435 49.1177 89.1725 48.9435 88.9509 48.8105C88.7355 48.6775 88.4759 48.611 88.1719 48.611C87.8172 48.611 87.51 48.6838 87.2504 48.8295C86.9907 48.9688 86.7912 49.1778 86.6519 49.4565C86.5125 49.7352 86.4429 50.0803 86.4429 50.492C86.4429 50.8847 86.5189 51.2267 86.6709 51.518C86.8229 51.803 87.0382 52.0247 87.3169 52.183C87.6019 52.3413 87.9439 52.4205 88.3429 52.4205C88.5772 52.4205 88.8084 52.3825 89.0364 52.3065C89.2707 52.2242 89.5272 52.0658 89.8059 51.8315L90.1764 52.3445C90.0307 52.4902 89.8565 52.62 89.6539 52.734C89.4512 52.8417 89.2295 52.9303 88.9889 53C88.7482 53.0633 88.5012 53.095 88.2479 53.095ZM93.7913 53.095C93.2973 53.095 92.8572 52.9873 92.4708 52.772C92.0908 52.5567 91.7932 52.2558 91.5778 51.8695C91.3625 51.4832 91.2548 51.0398 91.2548 50.5395C91.2548 50.1532 91.315 49.8048 91.4353 49.4945C91.5557 49.1778 91.7235 48.9023 91.9388 48.668C92.1605 48.4337 92.4233 48.2532 92.7273 48.1265C93.0313 47.9935 93.3607 47.927 93.7153 47.927C94.051 47.927 94.355 47.9872 94.6273 48.1075C94.906 48.2278 95.1435 48.3957 95.3398 48.611C95.5425 48.82 95.6945 49.0702 95.7958 49.3615C95.8972 49.6528 95.9415 49.9727 95.9288 50.321L95.9193 50.6535H91.7868L91.6823 50.055H95.3778L95.2068 50.2165V49.9885C95.1942 49.7605 95.1277 49.542 95.0073 49.333C94.887 49.1177 94.716 48.9435 94.4943 48.8105C94.279 48.6775 94.0193 48.611 93.7153 48.611C93.3607 48.611 93.0535 48.6838 92.7938 48.8295C92.5342 48.9688 92.3347 49.1778 92.1953 49.4565C92.056 49.7352 91.9863 50.0803 91.9863 50.492C91.9863 50.8847 92.0623 51.2267 92.2143 51.518C92.3663 51.803 92.5817 52.0247 92.8603 52.183C93.1453 52.3413 93.4873 52.4205 93.8863 52.4205C94.1207 52.4205 94.3518 52.3825 94.5798 52.3065C94.8142 52.2242 95.0707 52.0658 95.3493 51.8315L95.7198 52.3445C95.5742 52.4902 95.4 52.62 95.1973 52.734C94.9947 52.8417 94.773 52.9303 94.5323 53C94.2917 53.0633 94.0447 53.095 93.7913 53.095ZM100.367 53V46.35H105.202V47.8985H102.172V51.4515H105.345V53H100.367ZM101.26 50.359V48.896H104.822V50.359H101.26ZM106.743 53V48.041H107.446L107.475 49.0765L107.361 49.124C107.424 48.9087 107.547 48.7123 107.731 48.535C107.915 48.3577 108.133 48.2152 108.387 48.1075C108.646 47.9935 108.912 47.9365 109.185 47.9365C109.552 47.9365 109.859 48.0093 110.106 48.155C110.353 48.3007 110.54 48.5255 110.667 48.8295C110.793 49.1335 110.857 49.5198 110.857 49.9885V53H110.135V50.0265C110.135 49.6972 110.09 49.428 110.002 49.219C109.919 49.0037 109.789 48.8453 109.612 48.744C109.435 48.6427 109.216 48.5952 108.957 48.6015C108.741 48.6015 108.542 48.6395 108.358 48.7155C108.174 48.7852 108.016 48.8833 107.883 49.01C107.75 49.1367 107.646 49.2823 107.57 49.447C107.494 49.6117 107.456 49.789 107.456 49.979V53H107.104C107.06 53 107.009 53 106.952 53C106.895 53 106.825 53 106.743 53ZM114.563 55.185C114.196 55.185 113.848 55.128 113.518 55.014C113.189 54.9 112.917 54.7575 112.701 54.5865L112.986 53.988C113.113 54.0893 113.259 54.178 113.423 54.254C113.594 54.3363 113.778 54.3997 113.974 54.444C114.171 54.4947 114.37 54.52 114.573 54.52C114.94 54.52 115.25 54.4503 115.504 54.311C115.763 54.178 115.96 53.9785 116.093 53.7125C116.232 53.4465 116.302 53.1172 116.302 52.7245V51.7745L116.416 51.746C116.359 51.9867 116.235 52.2115 116.045 52.4205C115.855 52.6232 115.624 52.7878 115.352 52.9145C115.079 53.0348 114.791 53.095 114.487 53.095C114.025 53.095 113.61 52.9842 113.243 52.7625C112.882 52.5408 112.597 52.2368 112.388 51.8505C112.179 51.4578 112.074 51.0145 112.074 50.5205C112.074 50.0202 112.179 49.5768 112.388 49.1905C112.603 48.7978 112.891 48.4907 113.252 48.269C113.613 48.0473 114.019 47.9365 114.468 47.9365C114.665 47.9365 114.855 47.9618 115.038 48.0125C115.222 48.0568 115.39 48.1233 115.542 48.212C115.7 48.3007 115.843 48.402 115.969 48.516C116.096 48.63 116.2 48.7535 116.283 48.8865C116.371 49.0195 116.435 49.1557 116.473 49.295L116.273 49.2665L116.302 48.041H117.014V52.696C117.014 53.095 116.957 53.4465 116.843 53.7505C116.729 54.0608 116.561 54.3205 116.34 54.5295C116.124 54.7448 115.865 54.9063 115.561 55.014C115.263 55.128 114.931 55.185 114.563 55.185ZM114.573 52.411C114.908 52.411 115.206 52.3318 115.466 52.1735C115.732 52.0088 115.941 51.784 116.093 51.499C116.245 51.214 116.321 50.8847 116.321 50.511C116.321 50.1437 116.245 49.8175 116.093 49.5325C115.947 49.2475 115.741 49.0227 115.475 48.858C115.209 48.6933 114.908 48.611 114.573 48.611C114.231 48.611 113.927 48.6933 113.661 48.858C113.401 49.0227 113.195 49.2475 113.043 49.5325C112.891 49.8175 112.815 50.1437 112.815 50.511C112.815 50.872 112.888 51.1982 113.034 51.4895C113.186 51.7745 113.392 51.9993 113.651 52.164C113.917 52.3287 114.224 52.411 114.573 52.411ZM120.547 53.095C120.117 53.095 119.727 52.9842 119.379 52.7625C119.031 52.5345 118.755 52.2273 118.552 51.841C118.35 51.4483 118.248 51.005 118.248 50.511C118.248 50.0107 118.353 49.5673 118.562 49.181C118.771 48.7947 119.05 48.4907 119.398 48.269C119.753 48.0473 120.148 47.9365 120.585 47.9365C120.845 47.9365 121.086 47.9745 121.307 48.0505C121.529 48.1265 121.725 48.2342 121.896 48.3735C122.074 48.5065 122.219 48.6648 122.333 48.8485C122.454 49.0258 122.536 49.219 122.58 49.428L122.371 49.3235L122.4 48.041H123.112V53H122.39V51.784L122.58 51.6605C122.536 51.8505 122.451 52.0342 122.324 52.2115C122.197 52.3825 122.042 52.5345 121.858 52.6675C121.681 52.8005 121.478 52.905 121.25 52.981C121.029 53.057 120.794 53.095 120.547 53.095ZM120.709 52.411C121.038 52.411 121.333 52.3318 121.592 52.1735C121.852 52.0088 122.055 51.784 122.2 51.499C122.352 51.2077 122.428 50.8783 122.428 50.511C122.428 50.1437 122.352 49.8175 122.2 49.5325C122.055 49.2475 121.852 49.0227 121.592 48.858C121.333 48.6933 121.038 48.611 120.709 48.611C120.373 48.611 120.076 48.6933 119.816 48.858C119.563 49.0227 119.36 49.2475 119.208 49.5325C119.062 49.8175 118.989 50.1437 118.989 50.511C118.989 50.872 119.062 51.1982 119.208 51.4895C119.354 51.7745 119.556 51.9993 119.816 52.164C120.076 52.3287 120.373 52.411 120.709 52.411ZM126.847 55.185C126.48 55.185 126.131 55.128 125.802 55.014C125.473 54.9 125.2 54.7575 124.985 54.5865L125.27 53.988C125.397 54.0893 125.542 54.178 125.707 54.254C125.878 54.3363 126.062 54.3997 126.258 54.444C126.454 54.4947 126.654 54.52 126.856 54.52C127.224 54.52 127.534 54.4503 127.787 54.311C128.047 54.178 128.243 53.9785 128.376 53.7125C128.516 53.4465 128.585 53.1172 128.585 52.7245V51.7745L128.699 51.746C128.642 51.9867 128.519 52.2115 128.329 52.4205C128.139 52.6232 127.908 52.7878 127.635 52.9145C127.363 53.0348 127.075 53.095 126.771 53.095C126.309 53.095 125.894 52.9842 125.526 52.7625C125.165 52.5408 124.88 52.2368 124.671 51.8505C124.462 51.4578 124.358 51.0145 124.358 50.5205C124.358 50.0202 124.462 49.5768 124.671 49.1905C124.887 48.7978 125.175 48.4907 125.536 48.269C125.897 48.0473 126.302 47.9365 126.752 47.9365C126.948 47.9365 127.138 47.9618 127.322 48.0125C127.506 48.0568 127.673 48.1233 127.825 48.212C127.984 48.3007 128.126 48.402 128.253 48.516C128.38 48.63 128.484 48.7535 128.566 48.8865C128.655 49.0195 128.718 49.1557 128.756 49.295L128.557 49.2665L128.585 48.041H129.298V52.696C129.298 53.095 129.241 53.4465 129.127 53.7505C129.013 54.0608 128.845 54.3205 128.623 54.5295C128.408 54.7448 128.148 54.9063 127.844 55.014C127.547 55.128 127.214 55.185 126.847 55.185ZM126.856 52.411C127.192 52.411 127.49 52.3318 127.749 52.1735C128.015 52.0088 128.224 51.784 128.376 51.499C128.528 51.214 128.604 50.8847 128.604 50.511C128.604 50.1437 128.528 49.8175 128.376 49.5325C128.231 49.2475 128.025 49.0227 127.759 48.858C127.493 48.6933 127.192 48.611 126.856 48.611C126.514 48.611 126.21 48.6933 125.944 48.858C125.685 49.0227 125.479 49.2475 125.327 49.5325C125.175 49.8175 125.099 50.1437 125.099 50.511C125.099 50.872 125.172 51.1982 125.317 51.4895C125.469 51.7745 125.675 51.9993 125.935 52.164C126.201 52.3287 126.508 52.411 126.856 52.411ZM133.078 53.095C132.584 53.095 132.144 52.9873 131.758 52.772C131.378 52.5567 131.08 52.2558 130.865 51.8695C130.649 51.4832 130.542 51.0398 130.542 50.5395C130.542 50.1532 130.602 49.8048 130.722 49.4945C130.842 49.1778 131.01 48.9023 131.226 48.668C131.447 48.4337 131.71 48.2532 132.014 48.1265C132.318 47.9935 132.647 47.927 133.002 47.927C133.338 47.927 133.642 47.9872 133.914 48.1075C134.193 48.2278 134.43 48.3957 134.627 48.611C134.829 48.82 134.981 49.0702 135.083 49.3615C135.184 49.6528 135.228 49.9727 135.216 50.321L135.206 50.6535H131.074L130.969 50.055H134.665L134.494 50.2165V49.9885C134.481 49.7605 134.414 49.542 134.294 49.333C134.174 49.1177 134.003 48.9435 133.781 48.8105C133.566 48.6775 133.306 48.611 133.002 48.611C132.647 48.611 132.34 48.6838 132.081 48.8295C131.821 48.9688 131.621 49.1778 131.482 49.4565C131.343 49.7352 131.273 50.0803 131.273 50.492C131.273 50.8847 131.349 51.2267 131.501 51.518C131.653 51.803 131.868 52.0247 132.147 52.183C132.432 52.3413 132.774 52.4205 133.173 52.4205C133.407 52.4205 133.639 52.3825 133.867 52.3065C134.101 52.2242 134.357 52.0658 134.636 51.8315L135.007 52.3445C134.861 52.4902 134.687 52.62 134.484 52.734C134.281 52.8417 134.06 52.9303 133.819 53C133.578 53.0633 133.331 53.095 133.078 53.095ZM136.427 53V48.041H137.14L137.159 49.1715L137.016 49.219C137.067 49.029 137.149 48.858 137.263 48.706C137.383 48.5477 137.526 48.4115 137.691 48.2975C137.855 48.1835 138.036 48.098 138.232 48.041C138.428 47.9777 138.634 47.946 138.85 47.946C139.109 47.946 139.34 47.9903 139.543 48.079C139.752 48.1613 139.926 48.307 140.066 48.516C140.211 48.7187 140.322 48.9878 140.398 49.3235L140.227 49.238L140.294 49.0765C140.357 48.9308 140.449 48.7915 140.569 48.6585C140.696 48.5192 140.838 48.3957 140.997 48.288C141.161 48.1803 141.339 48.098 141.529 48.041C141.725 47.9777 141.924 47.946 142.127 47.946C142.475 47.946 142.77 48.022 143.011 48.174C143.251 48.3197 143.432 48.5445 143.552 48.8485C143.679 49.1525 143.742 49.5388 143.742 50.0075V53H143.011V50.0455C143.011 49.7162 142.969 49.447 142.887 49.238C142.805 49.029 142.681 48.8738 142.517 48.7725C142.358 48.6648 142.156 48.611 141.909 48.611C141.693 48.611 141.494 48.649 141.31 48.725C141.133 48.7947 140.978 48.896 140.845 49.029C140.718 49.1557 140.617 49.3013 140.541 49.466C140.471 49.6307 140.436 49.808 140.436 49.998V53H139.714V50.036C139.714 49.7193 139.67 49.4565 139.581 49.2475C139.499 49.0385 139.375 48.8802 139.211 48.7725C139.046 48.6648 138.843 48.611 138.603 48.611C138.394 48.611 138.2 48.649 138.023 48.725C137.846 48.7947 137.691 48.8928 137.558 49.0195C137.431 49.1462 137.33 49.2918 137.254 49.4565C137.184 49.6212 137.149 49.7985 137.149 49.9885V53H136.427ZM147.486 53.095C146.992 53.095 146.552 52.9873 146.166 52.772C145.786 52.5567 145.488 52.2558 145.273 51.8695C145.057 51.4832 144.95 51.0398 144.95 50.5395C144.95 50.1532 145.01 49.8048 145.13 49.4945C145.251 49.1778 145.418 48.9023 145.634 48.668C145.855 48.4337 146.118 48.2532 146.422 48.1265C146.726 47.9935 147.056 47.927 147.41 47.927C147.746 47.927 148.05 47.9872 148.322 48.1075C148.601 48.2278 148.838 48.3957 149.035 48.611C149.237 48.82 149.389 49.0702 149.491 49.3615C149.592 49.6528 149.636 49.9727 149.624 50.321L149.614 50.6535H145.482L145.377 50.055H149.073L148.902 50.2165V49.9885C148.889 49.7605 148.823 49.542 148.702 49.333C148.582 49.1177 148.411 48.9435 148.189 48.8105C147.974 48.6775 147.714 48.611 147.41 48.611C147.056 48.611 146.748 48.6838 146.489 48.8295C146.229 48.9688 146.03 49.1778 145.89 49.4565C145.751 49.7352 145.681 50.0803 145.681 50.492C145.681 50.8847 145.757 51.2267 145.909 51.518C146.061 51.803 146.277 52.0247 146.555 52.183C146.84 52.3413 147.182 52.4205 147.581 52.4205C147.816 52.4205 148.047 52.3825 148.275 52.3065C148.509 52.2242 148.766 52.0658 149.044 51.8315L149.415 52.3445C149.269 52.4902 149.095 52.62 148.892 52.734C148.69 52.8417 148.468 52.9303 148.227 53C147.987 53.0633 147.74 53.095 147.486 53.095ZM150.845 53V48.041H151.548L151.576 49.0765L151.462 49.124C151.526 48.9087 151.649 48.7123 151.833 48.535C152.016 48.3577 152.235 48.2152 152.488 48.1075C152.748 47.9935 153.014 47.9365 153.286 47.9365C153.654 47.9365 153.961 48.0093 154.208 48.155C154.455 48.3007 154.642 48.5255 154.768 48.8295C154.895 49.1335 154.958 49.5198 154.958 49.9885V53H154.236V50.0265C154.236 49.6972 154.192 49.428 154.103 49.219C154.021 49.0037 153.891 48.8453 153.714 48.744C153.536 48.6427 153.318 48.5952 153.058 48.6015C152.843 48.6015 152.643 48.6395 152.46 48.7155C152.276 48.7852 152.118 48.8833 151.985 49.01C151.852 49.1367 151.747 49.2823 151.671 49.447C151.595 49.6117 151.557 49.789 151.557 49.979V53H151.206C151.161 53 151.111 53 151.054 53C150.997 53 150.927 53 150.845 53ZM157.211 53V46.7395H157.924V53H157.211ZM156.09 48.725V48.041H159.178V48.725H156.09ZM163.479 53V46.35H166.424C166.861 46.35 167.25 46.4482 167.592 46.6445C167.941 46.8345 168.213 47.0973 168.409 47.433C168.612 47.7687 168.713 48.155 168.713 48.592C168.713 49.0417 168.612 49.4438 168.409 49.7985C168.213 50.1468 167.941 50.4223 167.592 50.625C167.25 50.8277 166.861 50.929 166.424 50.929H165.36V53H163.479ZM165.331 49.3045H166.101C166.234 49.3045 166.351 49.2792 166.452 49.2285C166.554 49.1715 166.633 49.0923 166.69 48.991C166.753 48.8897 166.785 48.7662 166.785 48.6205C166.785 48.4748 166.753 48.3545 166.69 48.2595C166.633 48.1645 166.554 48.0948 166.452 48.0505C166.351 47.9998 166.234 47.9745 166.101 47.9745H165.331V49.3045ZM170.023 53V45.97H170.735V53H170.023ZM174.192 53.095C173.761 53.095 173.371 52.9842 173.023 52.7625C172.675 52.5345 172.399 52.2273 172.197 51.841C171.994 51.4483 171.893 51.005 171.893 50.511C171.893 50.0107 171.997 49.5673 172.206 49.181C172.415 48.7947 172.694 48.4907 173.042 48.269C173.397 48.0473 173.793 47.9365 174.23 47.9365C174.489 47.9365 174.73 47.9745 174.952 48.0505C175.173 48.1265 175.37 48.2342 175.541 48.3735C175.718 48.5065 175.864 48.6648 175.978 48.8485C176.098 49.0258 176.18 49.219 176.225 49.428L176.016 49.3235L176.044 48.041H176.757V53H176.035V51.784L176.225 51.6605C176.18 51.8505 176.095 52.0342 175.968 52.2115C175.841 52.3825 175.686 52.5345 175.503 52.6675C175.325 52.8005 175.123 52.905 174.895 52.981C174.673 53.057 174.439 53.095 174.192 53.095ZM174.353 52.411C174.682 52.411 174.977 52.3318 175.237 52.1735C175.496 52.0088 175.699 51.784 175.845 51.499C175.997 51.2077 176.073 50.8783 176.073 50.511C176.073 50.1437 175.997 49.8175 175.845 49.5325C175.699 49.2475 175.496 49.0227 175.237 48.858C174.977 48.6933 174.682 48.611 174.353 48.611C174.017 48.611 173.72 48.6933 173.46 48.858C173.207 49.0227 173.004 49.2475 172.852 49.5325C172.706 49.8175 172.634 50.1437 172.634 50.511C172.634 50.872 172.706 51.1982 172.852 51.4895C172.998 51.7745 173.2 51.9993 173.46 52.164C173.72 52.3287 174.017 52.411 174.353 52.411ZM179.038 53V46.7395H179.75V53H179.038ZM177.917 48.725V48.041H181.004V48.725H177.917ZM182.417 53V47.2715C182.417 47.0245 182.471 46.806 182.578 46.616C182.686 46.426 182.838 46.2772 183.034 46.1695C183.237 46.0555 183.471 45.9985 183.737 45.9985C183.94 45.9985 184.121 46.0365 184.279 46.1125C184.444 46.1822 184.58 46.2803 184.687 46.407L184.44 46.9675C184.339 46.8598 184.228 46.7838 184.108 46.7395C183.994 46.6888 183.883 46.6635 183.775 46.6635C183.636 46.6635 183.519 46.6888 183.424 46.7395C183.329 46.7838 183.256 46.8535 183.205 46.9485C183.161 47.0372 183.139 47.1448 183.139 47.2715V53H182.806C182.737 53 182.67 53 182.607 53C182.544 53 182.48 53 182.417 53ZM181.533 48.744V48.079H184.402V48.744H181.533ZM187.655 53.095C187.161 53.095 186.721 52.9842 186.335 52.7625C185.955 52.5408 185.654 52.2337 185.432 51.841C185.217 51.4483 185.109 51.0018 185.109 50.5015C185.109 50.0075 185.217 49.5673 185.432 49.181C185.654 48.7947 185.955 48.4907 186.335 48.269C186.721 48.0473 187.161 47.9365 187.655 47.9365C188.143 47.9365 188.577 48.0473 188.957 48.269C189.343 48.4907 189.644 48.7947 189.859 49.181C190.081 49.5673 190.192 50.0075 190.192 50.5015C190.192 51.0018 190.081 51.4483 189.859 51.841C189.644 52.2337 189.343 52.5408 188.957 52.7625C188.577 52.9842 188.143 53.095 187.655 53.095ZM187.655 52.4205C188.003 52.4205 188.314 52.3382 188.586 52.1735C188.858 52.0025 189.071 51.7745 189.223 51.4895C189.375 51.1982 189.451 50.8688 189.451 50.5015C189.451 50.1342 189.375 49.808 189.223 49.523C189.071 49.238 188.858 49.0163 188.586 48.858C188.314 48.6933 188.003 48.611 187.655 48.611C187.307 48.611 186.993 48.6933 186.715 48.858C186.442 49.0163 186.227 49.2412 186.069 49.5325C185.917 49.8175 185.844 50.1405 185.85 50.5015C185.844 50.8688 185.917 51.1982 186.069 51.4895C186.227 51.7745 186.442 52.0025 186.715 52.1735C186.993 52.3382 187.307 52.4205 187.655 52.4205ZM191.44 53V48.041H192.153L192.172 49.3615L192.096 49.181C192.165 48.9593 192.276 48.7535 192.428 48.5635C192.586 48.3735 192.773 48.2215 192.989 48.1075C193.204 47.9935 193.441 47.9365 193.701 47.9365C193.809 47.9365 193.91 47.946 194.005 47.965C194.1 47.9777 194.179 47.9967 194.243 48.022L194.043 48.82C193.961 48.782 193.875 48.7567 193.787 48.744C193.704 48.725 193.625 48.7155 193.549 48.7155C193.334 48.7155 193.141 48.7535 192.97 48.8295C192.799 48.9055 192.653 49.0132 192.533 49.1525C192.412 49.2855 192.32 49.4407 192.257 49.618C192.194 49.7953 192.162 49.9853 192.162 50.188V53H191.44ZM195.184 53V48.041H195.896L195.915 49.1715L195.773 49.219C195.823 49.029 195.906 48.858 196.02 48.706C196.14 48.5477 196.282 48.4115 196.447 48.2975C196.612 48.1835 196.792 48.098 196.989 48.041C197.185 47.9777 197.391 47.946 197.606 47.946C197.866 47.946 198.097 47.9903 198.3 48.079C198.509 48.1613 198.683 48.307 198.822 48.516C198.968 48.7187 199.079 48.9878 199.155 49.3235L198.984 49.238L199.05 49.0765C199.113 48.9308 199.205 48.7915 199.326 48.6585C199.452 48.5192 199.595 48.3957 199.753 48.288C199.918 48.1803 200.095 48.098 200.285 48.041C200.481 47.9777 200.681 47.946 200.884 47.946C201.232 47.946 201.526 48.022 201.767 48.174C202.008 48.3197 202.188 48.5445 202.309 48.8485C202.435 49.1525 202.499 49.5388 202.499 50.0075V53H201.767V50.0455C201.767 49.7162 201.726 49.447 201.644 49.238C201.561 49.029 201.438 48.8738 201.273 48.7725C201.115 48.6648 200.912 48.611 200.665 48.611C200.45 48.611 200.25 48.649 200.067 48.725C199.889 48.7947 199.734 48.896 199.601 49.029C199.474 49.1557 199.373 49.3013 199.297 49.466C199.227 49.6307 199.193 49.808 199.193 49.998V53H198.471V50.036C198.471 49.7193 198.426 49.4565 198.338 49.2475C198.255 49.0385 198.132 48.8802 197.967 48.7725C197.802 48.6648 197.6 48.611 197.359 48.611C197.15 48.611 196.957 48.649 196.78 48.725C196.602 48.7947 196.447 48.8928 196.314 49.0195C196.187 49.1462 196.086 49.2918 196.01 49.4565C195.94 49.6212 195.906 49.7985 195.906 49.9885V53H195.184Z" fill="#0E0A3C"/>
</g>
<defs>
<clipPath id="clip0_4371_86170">
<rect width="203" height="56" fill="white"/>
</clipPath>
<clipPath id="clip1_4371_86170">
<rect width="62.7119" height="40" fill="white"/>
</clipPath>
<clipPath id="clip2_4371_86170">
<rect width="133.333" height="40" fill="white" transform="translate(66.7109)"/>
</clipPath>
</defs>
</svg>
